<svg width="24" height="24" viewBox="0 0 24 24" fill="none" xmlns="http://www.w3.org/2000/svg">
<path d="M23.9331 12.7452C23.8089 12.1576 23.1736 11.6847 22.0223 11.336C21.0573 11.0446 19.8439 10.8726 18.5064 10.8439L18.3774 5.40763C18.2006 4.8726 17.5653 4.43788 16.4904 4.11304C15.4156 3.7882 14.0159 3.61145 12.5398 3.61145C11.0685 3.61145 9.67834 3.7882 8.62739 4.11304C7.76274 4.38056 6.72611 4.87737 6.72611 5.73247C6.72611 5.78502 6.73089 5.83757 6.74045 5.89011L6.79299 8.06846C6.43949 8.00158 6.08121 7.96814 5.71815 7.96814C2.56529 7.96814 0 10.5334 0 13.6863C0 16.8439 2.55573 19.4044 5.71338 19.4044C7.02707 19.4044 8.30255 18.9506 9.32006 18.1242C10.2182 18.3344 11.2739 18.449 12.3917 18.4586C12.6354 19.7818 15.5064 20.3885 18.1815 20.3885C19.6529 20.3885 21.0382 20.207 22.0987 19.8822C22.9729 19.6146 24 19.113 24 18.2579L23.9331 12.7452ZM8.8949 5.03024C9.85987 4.73406 11.1545 4.56686 12.5303 4.56686C13.8917 4.56686 15.2341 4.73406 16.2086 5.03024C17.25 5.34553 17.4745 5.67037 17.4745 5.73725C17.4745 5.80413 17.25 6.12897 16.2086 6.44425C15.2389 6.73565 13.8965 6.90763 12.535 6.90763C11.2166 6.90763 9.96497 6.75476 9.01433 6.47769C7.98726 6.18151 7.69586 5.8519 7.67198 5.7468C7.67198 5.74202 7.6672 5.73725 7.66242 5.73247C7.66242 5.63215 7.98248 5.31209 8.8949 5.03024ZM17.551 6.91718V8.11145C17.4984 8.19266 17.4745 8.28342 17.4745 8.37897C17.4745 8.44107 17.25 8.77069 16.2134 9.08597C15.2436 9.38215 13.9013 9.54935 12.5398 9.54935C11.3599 9.54935 10.2038 9.42514 9.28662 9.19107C9.27229 9.18629 9.25796 9.18629 9.24841 9.18151C8.79936 8.82323 8.29299 8.53661 7.75796 8.33597L7.72452 6.98884C8.05414 7.15604 8.39809 7.28979 8.75637 7.38534C9.79299 7.68629 11.1354 7.84871 12.5446 7.84871C14.0207 7.84871 15.4204 7.67196 16.4904 7.34712C16.8535 7.25158 17.2118 7.10349 17.551 6.91718ZM8.91879 17.207C6.97452 18.9793 3.96019 18.836 2.19268 16.8917C0.425159 14.9474 0.563694 11.9331 2.50796 10.1656C3.38694 9.36782 4.52866 8.92355 5.71338 8.92355C6.19108 8.92355 6.66401 8.99521 7.12261 9.13374C7.74363 9.32483 8.32166 9.64489 8.81369 10.0748C9.61624 10.7579 10.1656 11.6943 10.3806 12.7261C10.4427 13.0414 10.4761 13.3662 10.4761 13.6863C10.4809 15.0286 9.91242 16.3089 8.91879 17.207ZM10.1322 17.3121C10.5191 16.8392 10.8296 16.3089 11.0494 15.7404C11.4602 15.7739 11.8901 15.7978 12.3344 15.8025C12.3248 15.8599 12.3248 15.9124 12.3344 15.9697L12.3535 17.5079C11.6131 17.4984 10.8726 17.4363 10.1322 17.3121ZM11.4076 13.1178C11.6895 13.1369 11.9809 13.1465 12.2818 13.1513C12.2866 13.1847 12.2962 13.2181 12.3057 13.2516L12.3248 14.8423C11.9809 14.8376 11.6417 14.8232 11.3217 14.7993C11.3933 14.4315 11.4315 14.0541 11.4315 13.6815C11.4315 13.4952 11.422 13.3089 11.4076 13.1178ZM12.5732 12.2006C12.5589 12.2006 12.5494 12.2006 12.535 12.2006C12.0717 12.2006 11.6322 12.1815 11.2213 12.1481C11.0446 11.5127 10.7532 10.9108 10.371 10.371C11.0876 10.4618 11.8137 10.5095 12.535 10.5095C14.0111 10.5095 15.4108 10.3328 16.4809 10.0079C16.8535 9.90285 17.207 9.75476 17.5462 9.56846V10.8439C16.3519 10.8774 15.2293 11.0302 14.336 11.2834C13.4952 11.5223 12.9076 11.828 12.5732 12.2006ZM13.2325 12.9124C13.3137 12.7643 13.672 12.4729 14.6035 12.215C15.5398 11.9522 16.758 11.8089 18.0382 11.8089H18.0764C19.4427 11.8089 20.7803 11.9665 21.75 12.2627C22.7532 12.5685 22.9968 12.8742 23.0111 12.9554V12.9602C23.0064 13.0318 22.7723 13.3614 21.7118 13.6767C20.7325 13.9681 19.4379 14.1258 18.0764 14.1258C16.8105 14.1258 15.5924 13.9825 14.6561 13.7293C13.758 13.4857 13.371 13.2038 13.2564 13.0414C13.2564 12.9984 13.2468 12.9554 13.2325 12.9124ZM23.0446 18.2532C23.0446 18.32 22.8344 18.6497 21.8169 18.965C20.8424 19.2659 19.5525 19.4331 18.1768 19.4331C16.7962 19.4331 15.5111 19.2707 14.551 18.9793C13.6385 18.6974 13.3328 18.3822 13.3328 18.2771C13.3328 18.2723 13.3328 18.2723 13.3328 18.2675L13.328 17.9761L13.3137 16.8965C13.6959 17.0828 14.0924 17.2261 14.5032 17.3264C15.5064 17.5892 16.7723 17.7325 18.0764 17.7325C19.5525 17.7325 20.9379 17.5557 22.008 17.2309C22.3567 17.1258 22.758 16.9825 23.0446 16.7962V18.2532ZM22.9825 15.6067C22.9825 15.6736 22.7627 15.9984 21.7357 16.3137C20.7564 16.6099 19.457 16.7723 18.0717 16.7723C15.4729 16.7723 13.7054 16.1943 13.2946 15.7357L13.2755 14.2261C14.4029 14.8137 16.2994 15.0812 18.0764 15.0812C19.5287 15.0812 20.9092 14.9092 21.9745 14.5939C22.3471 14.4888 22.7054 14.3455 23.0494 14.1592V15.3535C23.0446 15.4251 22.9825 15.5111 22.9825 15.6067Z" fill="white"/>
<path d="M5.7182 10.5287C3.97457 10.5287 2.56534 11.9427 2.56534 13.6816C2.56534 15.4204 3.97935 16.8344 5.7182 16.8344C7.45706 16.8344 8.87107 15.4204 8.87107 13.6816C8.86629 11.9427 7.45706 10.5335 5.7182 10.5287ZM5.7182 15.8838C4.50483 15.8838 3.52075 14.8997 3.52075 13.6863C3.52075 12.473 4.50483 11.4889 5.7182 11.4889C6.93158 11.4889 7.91566 12.473 7.91566 13.6863C7.91566 14.8997 6.93158 15.8838 5.7182 15.8838Z" fill="white"/>
</svg>
