<svg width="24" height="24" viewBox="0 0 24 24" fill="none" xmlns="http://www.w3.org/2000/svg">
<g clip-path="url(#clip0_26_0)">
<path d="M23.2969 4.21875C23.6852 4.21875 24 3.90394 24 3.51562V0.703125C24 0.314812 23.6852 0 23.2969 0H14.8594C14.4711 0 14.1562 0.314812 14.1562 0.703125V3.51562C14.1562 3.90394 14.4711 4.21875 14.8594 4.21875H16.9688V5.625H11.25V2.10938C11.25 1.72106 10.9352 1.40625 10.5469 1.40625H4.92188C4.53356 1.40625 4.21875 1.72106 4.21875 2.10938V5.625H2.10938C0.946266 5.625 0 6.57127 0 7.73438C0 8.50683 0 21.1215 0 21.8906C0 23.0537 0.946266 24 2.10938 24H21.8906C23.0537 24 24 23.0537 24 21.8906C24 21.1213 24 8.50664 24 7.73438C24 6.57127 23.0537 5.625 21.8906 5.625H21.1875V4.21875H23.2969ZM5.625 2.8125H7.03125V3.51562C7.03125 3.90394 7.34606 4.21875 7.73438 4.21875C8.12269 4.21875 8.4375 3.90394 8.4375 3.51562V2.8125H9.84375V8.4375H5.625V2.8125ZM22.5938 21.8906C22.5938 22.2783 22.2783 22.5938 21.8906 22.5938H2.10938C1.72167 22.5938 1.40625 22.2783 1.40625 21.8906V18.375H22.5938V21.8906ZM21.8906 7.03125C22.2783 7.03125 22.5938 7.34667 22.5938 7.73438V16.9688H1.40625V7.73438C1.40625 7.34667 1.72167 7.03125 2.10938 7.03125H4.21875V8.4375H3.51562C3.12731 8.4375 2.8125 8.75231 2.8125 9.14062C2.8125 9.52894 3.12731 9.84375 3.51562 9.84375C3.85064 9.84375 11.618 9.84375 11.9531 9.84375C12.3414 9.84375 12.6562 9.52894 12.6562 9.14062C12.6562 8.75231 12.3414 8.4375 11.9531 8.4375H11.25V7.03125C11.6862 7.03125 21.3992 7.03125 21.8906 7.03125ZM18.375 5.625V4.21875H19.7812V5.625H18.375ZM15.5625 2.8125V1.40625H22.5938V2.8125C21.8928 2.8125 16.2517 2.8125 15.5625 2.8125Z" fill="white"/>
<path d="M6.32812 11.25H4.92188C4.53356 11.25 4.21875 11.5648 4.21875 11.9531C4.21875 12.3414 4.53356 12.6562 4.92188 12.6562H6.32812C6.71644 12.6562 7.03125 12.3414 7.03125 11.9531C7.03125 11.5648 6.71644 11.25 6.32812 11.25Z" fill="white"/>
<path d="M6.32812 14.0625H4.92188C4.53356 14.0625 4.21875 14.3773 4.21875 14.7656C4.21875 15.1539 4.53356 15.4688 4.92188 15.4688H6.32812C6.71644 15.4688 7.03125 15.1539 7.03125 14.7656C7.03125 14.3773 6.71644 14.0625 6.32812 14.0625Z" fill="white"/>
<path d="M10.5469 11.25H9.14062C8.75231 11.25 8.4375 11.5648 8.4375 11.9531C8.4375 12.3414 8.75231 12.6562 9.14062 12.6562H10.5469C10.9352 12.6562 11.25 12.3414 11.25 11.9531C11.25 11.5648 10.9352 11.25 10.5469 11.25Z" fill="white"/>
<path d="M10.5469 14.0625H9.14062C8.75231 14.0625 8.4375 14.3773 8.4375 14.7656C8.4375 15.1539 8.75231 15.4688 9.14062 15.4688H10.5469C10.9352 15.4688 11.25 15.1539 11.25 14.7656C11.25 14.3773 10.9352 14.0625 10.5469 14.0625Z" fill="white"/>
<path d="M16.2656 14.0625H14.8594C14.4711 14.0625 14.1562 14.3773 14.1562 14.7656C14.1562 15.1539 14.4711 15.4688 14.8594 15.4688H16.2656C16.6539 15.4688 16.9688 15.1539 16.9688 14.7656C16.9688 14.3773 16.6539 14.0625 16.2656 14.0625Z" fill="white"/>
<path d="M20.4844 14.0625H19.0781C18.6898 14.0625 18.375 14.3773 18.375 14.7656C18.375 15.1539 18.6898 15.4688 19.0781 15.4688H20.4844C20.8727 15.4688 21.1875 15.1539 21.1875 14.7656C21.1875 14.3773 20.8727 14.0625 20.4844 14.0625Z" fill="white"/>
<path d="M20.4844 8.4375H14.8594C14.4711 8.4375 14.1562 8.75231 14.1562 9.14062V11.9531C14.1562 12.3414 14.4711 12.6562 14.8594 12.6562H20.4844C20.8727 12.6562 21.1875 12.3414 21.1875 11.9531V9.14062C21.1875 8.75231 20.8727 8.4375 20.4844 8.4375ZM19.7812 11.25H15.5625V9.84375H19.7812V11.25Z" fill="white"/>
<path d="M13.3594 19.7812H10.5469C10.1586 19.7812 9.84375 20.0961 9.84375 20.4844C9.84375 20.8727 10.1586 21.1875 10.5469 21.1875H13.3594C13.7477 21.1875 14.0625 20.8727 14.0625 20.4844C14.0625 20.0961 13.7477 19.7812 13.3594 19.7812Z" fill="white"/>
</g>
<defs>
<clipPath id="clip0_26_0">
<rect width="24" height="24" fill="white"/>
</clipPath>
</defs>
</svg>
